<?xml version="1.0" encoding="UTF-8"?>
<svg id="b" data-name="Layer 2" xmlns="http://www.w3.org/2000/svg" width="404.55" height="487.102" viewBox="0 0 404.55 487.102">
  <g id="c" data-name="Layer 1">
    <g>
      <path d="M300.75,350.46c5.272-.539,9.656.801,12.821,2.371,3.541,1.757,6.087,5.05,6.994,8.898,4.186,17.76-2.732,25.189-1.602,40.041.301,3.959.124,7.31,5.111,4.841,7.399-3.663,6.489-15.054,15.637-14.139,10.983,1.098,8.196,19.114,2.816,24.857-4.203,4.486-6.058-.61-10.121-.681-1.911-.033-3.975,1.543-5.725,2.189-11.702,4.317-19.626-2.036-21.31-13.581-2.357-16.157,2.274-19.454.537-36.077-.417-3.995-2.688-5.452-8.264-4.663,0,0-63.349,2.066-145.484,1.926-46.024-.079-97.889.348-105.639-36.781-4.723-22.628,15.969-16.069,17.614-2.055,1.644,14.015,12.291,23.518,93.629,24.103,96.616.695,142.987-1.249,142.987-1.249Z"/>
      <path d="M404.519,439.887c.065,2.707.035,5.994-.152,8.687-1.778,25.59-26.027,45.688-51.559,36.087-7.788-2.929-23.051-12.867-21.751-22.532.376-2.796,2.166-5.379,5.282-4.925,4.28.623,9.84,6.452,13.786,8.588,15.368,8.318,40.438,1.635,42.215-17.766.732-7.992-1.821-22.295-4.214-30.088-.533-1.737-1.43-1.501-2.966-.934-3.234,1.195-5.061,4.029-9.071,4.895-14.961,3.23-25.556-15.008-24.022-28.051.955-8.122,10.987-11.509,16.24-4.733,3.22,4.153,2.018,9.336,3.703,13.724.658,1.714,2.3,1.609,3.617.665,3.006-2.154,4.105-10.898,5.542-14.445,3.642-8.991,15.223-6.924,16.567,2.303.541,3.715.703,7.52,1.266,11.259,1.859,12.331,5.216,24.807,5.516,37.266Z"/>
      <path d="M136.145,468.426l-2.445-.165c-6.968-3.613-5.659-10.776-6.276-17.757-.397-4.494-.684-12.892-.801-26.667-.094-11.071-2.334-22.075-1.942-33.082.245-6.871,2.093-16.117,11.192-13.335,1.249.382,1.892.805,2.633,1.884.796,1.159.763,2.643,2.385,2.954,3.521.128,7.735-1.845,11.158-1.624,7.227.468,12.255,6.011,14.509,12.445,2.16,6.163,4.06,23.215-4.003,25.667-5.483,1.667-4.856-6.756-5.199-9.887-.399-3.64-2.429-12.247-6.775-12.912-2.887-.442-7.19,2.819-8.684,5.169-2.195,13.288-1.683,20.161-1.508,28.786.428,21.106,3.183,23.883,1.622,32.665-.585,3.29-2.397,5.097-5.865,5.858Z"/>
      <path d="M208.178,380.128c3.336-.392,6.486,1.415,8.231,4.203,1.848,2.951,1.581,7.677,2.065,11.145,3.76,26.959,15.565,58.65-8.904,79.531-13.227,11.287-29.475,11.623-44.207,2.833-5.939-3.543-16.229-12.133-13.972-19.989,2.805-9.764,14.074,2.121,18.4,4.547,10.233,5.74,22.206,5.018,32.094-1.019,12.811-7.822,11.515-21.109,9.016-34.067-.707-3.664-1.617-9.063-2.712-12.491-1.149-3.595-6.28,1.275-8.065,2.323-15.75,9.244-31.847-14.113-27.54-28.292,1.851-6.093,9.243-8.661,14.288-4.472,3.947,3.278,3.713,8.253,4.64,12.82.378,1.86.422,4.24,3.045,3.748,2.378-.446,3.752-5.005,4.408-7.003,1.713-5.216,2.242-12.998,9.214-13.817Z"/>
      <path d="M32.031,377.929c1.528-.173,6.003,1.208,6.929,2.394.713.913,1.509,6.639,1.631,8.061,1.456,17.093-4.609,34.918-4.045,52.298.55,16.946,15.779,22.011,30.506,20.912,3.169-.236,6.979-.667,9.799-2.1,3.702-1.881,10.185-7.329,14.41-6.594,1.337.233,2.825,1.852,2.747,3.252-.351,6.326-5.391,13.165-10.478,16.609-14.072,9.527-35.895,6.856-48.689-3.719-15.135-12.509-13.965-30.379-13.858-48.373-.47-1.64-2.712-.559-4.004-.496-10.709.527-16.066-14.304-16.85-22.948-.55-6.061.37-17.291,8.668-17.295,10.535-.005,6.284,17.905,8.5,24.371.438,1.277.908,1.926,2.318,1.367,5.23-2.076,6.051-15.22,7.28-20.13.677-2.703,1.859-7.237,5.137-7.608Z"/>
      <path d="M232.346,380.774c10.382-1.323,8.068,14.751,9.771,21.329.754,2.913,1.787,6.013,4.794,2.826,3.532-3.743,2.85-8.842,4.575-13.179,2.315-5.82,8.641-6.192,12.386-1.452,2.467,3.123,2.3,8.628,5.275,10.893,2.649,2.017,6.946-.315,8.448-2.816,2.001-3.331,1.21-6.912,2.3-10.319,2.577-8.057,12.976-7.998,16.317-.511,2.345,5.255,3.871,20.584,3.805,26.545-.055,4.916-1.712,8.789-7.367,7.988-5.99-.848-6.492-6.769-9.445-10.371-1.498-1.826-3.083.245-4.587,1.106-5.668,3.249-10.935,4.043-17.018,1.137-.983-.47-4.197-2.78-4.838-2.692-.92.126-2.295,2.328-2.997,3.035-13.436,13.54-27.059.761-28.38-14.653-.438-5.104.153-18,6.96-18.868Z"/>
      <path d="M52.437,376.893c11.39-1.331,6.41,19.279,10.79,24.945,1.55,2.005,3.941-1.182,4.731-2.523,2.188-3.71,1.798-8.051,3.473-11.826,2.767-6.241,10.087-5.049,13.078.374,2.242,4.065,2.423,13.698,10.037,9.275,5.173-3.005,3.663-7.784,4.989-12.524,2.386-8.527,13.33-8.428,16.534-.503,2.209,5.466,4.223,22.928,3.512,28.745-.799,6.541-7.815,7.042-11.843,2.946-2.174-2.21-3.173-6.325-4.976-8.116-1.463-1.454-2.898.447-4.275,1.244-6.749,3.903-11.821,4.071-18.712.364-.99-.533-2.329-1.846-3.398-1.731-.986.107-2.407,2.472-3.196,3.284-11.029,11.361-23.934,3.168-27.237-10.063-1.484-5.944-1.998-22.899,6.492-23.891Z"/>
      <path d="M361.192,160.991c0,89.571-28.165,135.678-120.992,162.484-92.827,26.806-187.385-22.455-211.201-110.028C5.184,125.875,61.13,33.153,153.957,6.346c92.827-26.806,207.235,32.545,207.235,154.645Z" fill="#fed919"/>
      <path d="M195.352,330.782c55.93,0,90.487-14.036,120.166-8.984,24.56,4.18,37.867,24.606,41.946,40.49.554,2.157,3.728,1.751,3.728-.476v-200.82c-34.183,55.004-87.854,122.136-165.84,169.791Z" fill="#fed919"/>
      <path d="M47.005,133.413c-14.152,50.292,3.524,135.16,96.285,171.923,70.912,28.104,138.185-9.611,152.712-19.244,32.014-21.228,52.861-59.045,46.656-136.02-4.17-51.733-31.54-109.102-105.581-128.424C146.534-1.98,67.228,61.547,47.005,133.413Z" fill="#fff"/>
      <path d="M174.721,259.031c52.002-48.602,64.198-90.648,77.104-153.821,4.497-22.013,4.104-51.553-11.248-67.957-15.3-16.347-41.937-15.451-62.77-7.245-18.195,7.166-34.903,19.322-44.784,36.196-9.882,16.875-12.102,38.741-3.174,56.139,8.928,17.398,29.741,28.109,48.833,23.876,19.024-4.218,25.086-41.948-.161-39.336-2.233.231-4.174.845-5.836,1.647-7.586,3.661-16.799.277-20.034-7.5-3.178-7.639-3.445-18.023,6.035-30.566,21.136-27.964,73.813-39.345,73.813,12.681s-26.668,157.801-68.297,180.174l10.519-4.289Z" fill="#9683fe"/>
      <path d="M68.816,199.15c-6.966,26.258,1.715,50.531,21.611,67.605,21.412,18.375,51.291,18.677,69.763,10.365,43.507-19.578,49.471-59.855,86.465-75.053,30.137-12.381,53.875,23.122,61.497,62.746,2.859,14.865,34.814,18.227,25.621-21.429-4.88-21.054-23.445-47.599-43.519-55.643-58.659-23.505-82.876,35.286-109.947,62.04-22.764,22.497-54.441,28.615-79.044,10.631-30.696-22.438-21.962-44.635-15.455-58.05,6.459-13.314,4.747-19.311-.598-20.4-6.202-1.263-12.605,2.907-16.394,17.19Z" fill="#9683fe"/>
      <g>
        <path d="M115.292,175.673c-2.932-8.452-8.989-14.604-16-18.004-7.01-3.4-15.592-4.348-24.045-1.416-2.337.812-3.512,3.254-2.716,5.564.987,2.898,3.902,3.348,5.606,2.725,5.723-1.981,11.875-1.616,17.324,1.026s9.544,7.248,11.532,12.968c.566,1.724,2.725,3.734,5.612,2.715,2.307-.805,3.496-3.241,2.687-5.578h0Z"/>
        <path d="M93.384,169.851c-3.927-1.905-8.849-2.488-13.698-.807-2.366.82-3.522,3.286-2.702,5.611.812,2.315,3.252,3.49,5.577,2.684,2.309-.801,4.792-.655,6.992.412,2.199,1.067,3.852,2.926,4.653,5.235.806,2.325,3.24,3.513,5.56,2.717,2.334-.796,3.554-3.23,2.733-5.596-1.682-4.848-5.188-8.352-9.115-10.256h0Z"/>
      </g>
    </g>
  </g>
</svg>